<svg version="1.1" id="Layer_1" xmlns="http://www.w3.org/2000/svg" xmlns:xlink="http://www.w3.org/1999/xlink" x="0px" y="0px"
	 width="100%" viewBox="0 0 512 512" enable-background="new 0 0 512 512" xml:space="preserve">
<path fill="#000000" opacity="1.000000" stroke="none" 
	d="
M121.468658,513.000000 
	C112.200089,508.351990 109.451591,500.974670 109.340813,491.215759 
	C109.264191,484.466583 108.828514,477.636444 108.669281,470.837402 
	C108.597290,467.763306 109.091148,464.694336 111.257645,462.477112 
	C114.640961,459.014740 114.752220,454.915771 114.701714,450.506287 
	C114.564316,438.511414 115.199402,426.484070 114.541008,414.523956 
	C113.359825,393.067505 114.569710,371.572540 113.413200,350.170227 
	C112.405388,331.519958 113.557426,312.888855 112.503487,294.301025 
	C111.957085,284.664215 111.663101,275.052582 111.661148,265.417938 
	C111.659874,259.121918 114.570999,255.706833 119.780907,255.673065 
	C125.405487,255.636627 128.174774,258.926300 128.348450,265.524139 
	C129.009598,290.640930 128.812698,315.785309 129.631165,340.877350 
	C130.271744,360.516144 129.225601,380.176453 130.535965,399.740967 
	C131.829483,419.053925 130.807083,438.333221 131.364258,457.617035 
	C131.499786,462.307190 129.958221,466.162872 127.187073,470.023407 
	C123.408485,475.287415 125.040962,481.645599 125.883682,487.373535 
	C127.403381,497.702972 127.788834,497.646362 138.586655,497.646423 
	C169.410919,497.646515 200.235199,497.651398 231.059464,497.643188 
	C238.967606,497.641083 239.605499,496.955688 239.662628,489.124756 
	C239.692871,484.982300 239.405548,480.844818 240.482224,476.720612 
	C241.004517,474.720032 241.138458,472.369354 239.403671,470.573334 
	C233.063980,464.009949 233.261108,456.076996 234.280212,447.785553 
	C234.845673,443.185028 234.625732,438.480438 234.647858,433.822235 
	C234.692993,424.325226 234.269516,414.808319 234.741364,405.334564 
	C235.867996,382.714111 234.772888,360.048065 235.900497,337.471802 
	C236.840363,318.653870 235.587097,299.836945 236.823196,281.096191 
	C238.107697,261.621460 236.590759,242.129608 237.864990,222.728455 
	C238.805527,208.408157 238.130280,194.127914 238.720032,179.846649 
	C238.893555,175.644440 237.381027,172.504196 234.591949,169.624725 
	C226.030258,160.785583 217.030685,152.392822 208.875809,143.128220 
	C202.881363,136.318054 199.083572,129.164474 199.580368,119.865700 
	C199.926712,113.382790 199.636520,113.358055 193.023239,113.350761 
	C185.692078,113.342674 178.358551,113.463608 171.030777,113.307083 
	C167.688919,113.235703 166.031281,114.223557 166.323105,117.838470 
	C167.253723,129.367172 162.266006,138.228867 154.152145,146.036285 
	C146.009079,153.871780 138.458359,162.320114 130.551010,170.404968 
	C128.158783,172.850876 127.291840,175.588837 127.309830,178.950836 
	C127.397209,195.278885 127.388031,211.607849 127.321442,227.936111 
	C127.294174,234.621780 121.978958,238.444748 116.008499,236.192612 
	C111.650345,234.548645 110.861557,230.463623 110.812195,226.768112 
	C110.569656,208.610321 110.587479,190.446426 110.772896,172.287323 
	C110.822212,167.456772 113.540138,163.428024 116.792816,160.023773 
	C125.752533,150.646530 134.639923,141.182846 143.967957,132.180283 
	C151.497437,124.913513 150.102936,116.145630 148.847717,107.511543 
	C148.508667,105.179375 147.660172,102.788399 147.658951,100.322266 
	C147.644867,71.830650 147.775452,43.338009 147.544037,14.848269 
	C147.497986,9.179285 148.864105,4.751572 153.777557,1.256031 
	C173.020889,1.000000 192.041794,1.000000 211.531342,1.000000 
	C216.874146,4.484361 218.526306,9.073487 218.464523,15.162252 
	C218.180664,43.136951 218.406754,71.116425 218.302780,99.093636 
	C218.276459,106.176872 215.523621,112.996361 216.223480,120.252541 
	C216.578354,123.931816 217.522598,127.110466 219.924652,129.760483 
	C228.520126,139.243286 237.340469,148.513275 246.566010,157.391998 
	C252.462372,163.066696 255.670135,169.758606 255.427460,178.214661 
	C255.107529,189.363220 255.961533,200.569016 255.215698,211.676666 
	C253.853683,231.961151 255.335190,252.282974 254.122467,272.507507 
	C253.004807,291.146545 254.428391,309.784973 253.194672,328.345917 
	C251.878845,348.142365 253.349747,367.957367 252.104691,387.684967 
	C251.022659,404.829376 251.826813,421.936035 251.347000,439.051056 
	C251.235657,443.022980 251.436462,446.965240 250.549484,450.949219 
	C249.795380,454.336212 250.424011,457.440735 253.250046,460.471375 
	C257.567780,465.101715 258.079254,471.454193 257.120483,477.422241 
	C256.317657,482.419739 256.080231,487.385651 256.431671,492.311371 
	C257.091278,501.556854 252.964600,507.876617 245.231598,512.763428 
	C203.979111,513.000000 162.958206,513.000000 121.468658,513.000000 
M201.651138,58.506256 
	C201.649750,55.007549 201.490906,51.499771 201.691803,48.012718 
	C201.887772,44.611393 200.711182,43.242554 197.148468,43.306698 
	C187.488602,43.480621 177.820679,43.487144 168.161636,43.286060 
	C164.430695,43.208382 163.246048,44.526527 163.286499,48.209145 
	C163.445786,62.702091 163.434967,77.198662 163.291061,91.691940 
	C163.255585,95.263504 164.243240,96.802101 168.075958,96.720673 
	C177.568146,96.519005 187.070877,96.514259 196.562546,96.730225 
	C200.531738,96.820534 201.786453,95.367615 201.716064,91.490807 
	C201.522522,80.831551 201.650101,70.166481 201.651138,58.506256 
M193.352417,16.373684 
	C184.874893,16.374191 176.394455,16.505922 167.921127,16.317331 
	C163.954788,16.229050 163.280090,18.165236 163.272537,21.548388 
	C163.264969,24.934305 163.893173,26.802269 167.904190,26.709185 
	C177.373840,26.489420 186.856598,26.480589 196.325134,26.727884 
	C200.498337,26.836880 201.662598,25.340862 201.770889,21.267387 
	C201.937790,14.988880 197.685501,16.599829 193.352417,16.373684 
z"/>
<path fill="#000000" opacity="1.000000" stroke="none" 
	d="
M301.468658,513.000000 
	C291.194122,507.543884 289.141022,498.404877 288.582062,488.155975 
	C287.572144,469.639252 286.010895,451.153137 284.796997,432.646606 
	C284.428192,427.023529 284.164978,421.392853 283.803131,415.769897 
	C282.590820,396.928528 281.511841,378.080383 279.804535,359.274323 
	C279.105194,351.570862 285.564117,343.777313 293.447083,343.737701 
	C326.091217,343.573792 358.737885,343.515961 391.380890,343.767792 
	C401.451996,343.845459 407.315796,352.947327 405.104034,364.847504 
	C403.941040,371.104767 404.144714,377.399384 403.568848,383.647705 
	C401.957733,401.128784 401.414276,418.705963 400.294434,436.235321 
	C399.048401,455.738892 397.712097,475.237610 396.249786,494.726013 
	C395.648590,502.738281 391.651794,508.749817 384.233582,512.764160 
	C356.645782,513.000000 329.291534,513.000000 301.468658,513.000000 
M376.473175,360.362244 
	C352.491547,360.364655 328.509888,360.366272 304.528259,360.371735 
	C303.196289,360.372040 301.856476,360.316956 300.533813,360.436859 
	C295.922028,360.854828 297.650146,364.465271 297.389954,366.971344 
	C297.134399,369.433319 297.312134,371.751923 300.827759,371.650574 
	C303.988647,371.559479 307.162964,371.530273 310.317505,371.713104 
	C315.556702,372.016785 319.246460,375.965912 318.984650,380.756317 
	C318.749634,385.056396 315.028259,388.254913 310.097870,388.358521 
	C308.266754,388.397003 306.414062,388.537018 304.606232,388.327942 
	C300.363739,387.837280 298.973541,389.723145 299.314331,393.781036 
	C300.090302,403.020996 300.757385,412.272095 301.317200,421.527802 
	C302.077820,434.104431 302.522766,446.702087 303.422699,459.267822 
	C304.453339,473.658966 304.605438,473.647278 319.105286,473.647491 
	C337.591095,473.647797 356.077576,473.567657 374.562164,473.716919 
	C378.444611,473.748260 381.131744,473.257751 380.902863,468.534668 
	C380.840881,467.255280 381.531219,465.956512 381.608826,464.650757 
	C382.660919,446.943848 383.331299,429.204956 384.869476,411.541382 
	C385.386414,405.604675 384.802582,399.553864 386.251526,393.731476 
	C387.243744,389.744598 386.097717,388.250122 381.935242,388.305267 
	C370.279572,388.459717 358.620514,388.374084 346.962860,388.343201 
	C345.166534,388.338440 343.364532,388.568054 341.641357,387.514679 
	C338.152557,385.382019 336.422943,382.316833 337.333588,378.395599 
	C338.348206,374.026886 341.482147,371.685760 346.029083,371.667236 
	C358.352753,371.616974 370.676819,371.670105 383.000549,371.631592 
	C384.735229,371.626129 386.697845,372.102112 387.538361,369.644714 
	C390.148285,362.014099 389.009430,360.356720 380.955444,360.358063 
	C379.789673,360.358276 378.623901,360.360565 376.473175,360.362244 
M337.499939,496.657227 
	C349.654755,496.656067 361.809906,496.601868 373.964111,496.688202 
	C377.326294,496.712097 379.630432,495.688324 379.544708,492.008667 
	C379.454224,488.123169 376.270782,489.411835 374.264130,489.403290 
	C353.118500,489.313324 331.972290,489.335205 310.826324,489.371582 
	C309.241638,489.374329 307.468445,488.874542 306.179718,490.315125 
	C305.611572,495.184479 307.807739,496.869446 312.525543,496.720093 
	C320.509644,496.467377 328.507721,496.654541 337.499939,496.657227 
z"/>
<path fill="#000000" opacity="1.000000" stroke="none" 
	d="
M224.816147,270.862244 
	C225.294357,282.530457 226.050705,293.797424 224.503220,305.066864 
	C223.986908,308.826965 224.093567,312.730774 224.387634,316.532410 
	C225.102707,325.776978 219.619308,332.079285 209.378525,332.259399 
	C191.744995,332.569550 174.071991,332.956329 156.473160,332.111298 
	C144.522141,331.537476 141.413437,327.360962 140.821289,314.225922 
	C140.199921,300.442169 140.533752,286.606018 140.753708,272.797638 
	C140.863586,265.899139 146.100739,260.855652 153.533569,260.768707 
	C173.167023,260.539001 192.806168,260.558411 212.440292,260.754456 
	C219.150299,260.821442 222.502365,263.891144 224.816147,270.862244 
M186.499557,315.647797 
	C192.156464,315.643036 197.813797,315.596436 203.470108,315.652496 
	C206.021225,315.677765 207.422638,314.903076 207.669769,312.026520 
	C208.523361,302.091583 208.764359,292.150574 208.709137,282.185028 
	C208.690842,278.880798 207.718628,277.307587 204.159668,277.332672 
	C190.018234,277.432434 175.875320,277.407257 161.733643,277.317230 
	C158.552078,277.296997 157.273331,278.487427 157.313477,281.730164 
	C157.435013,291.545013 157.471420,301.364532 157.292465,311.177673 
	C157.226776,314.778687 158.700699,315.762665 162.041183,315.695190 
	C169.857819,315.537292 177.679840,315.646454 186.499557,315.647797 
z"/>
<path fill="#000000" opacity="1.000000" stroke="none" 
	d="
M181.272858,227.578979 
	C171.846878,228.632889 163.578552,231.738724 155.356461,235.476349 
	C145.731094,239.851868 136.475250,233.667038 135.556427,223.262802 
	C135.119644,218.317047 134.219452,213.478912 135.133560,208.460220 
	C136.386566,201.581024 140.477188,197.216278 146.615097,194.523209 
	C155.949905,190.427460 165.671585,188.300430 175.907135,187.474457 
	C191.124100,186.246506 205.499237,188.795059 219.450134,194.593246 
	C227.264008,197.840820 232.035675,205.705185 230.837830,214.089691 
	C230.385284,217.257294 230.468887,220.377563 230.334930,223.519760 
	C229.968048,232.126236 221.888855,238.197723 213.413101,236.523270 
	C206.170685,235.092499 200.398651,229.837280 192.960541,229.009933 
	C189.195908,228.591187 185.450333,228.001175 181.272858,227.578979 
M211.041443,216.890900 
	C212.039276,217.230423 213.092575,217.470291 213.473755,216.134247 
	C214.420105,212.817215 213.684418,210.354965 210.104767,209.019409 
	C191.849304,202.208374 173.674255,202.091400 155.463181,209.238647 
	C150.972855,211.000931 150.705017,213.976639 152.053192,218.342041 
	C171.433365,209.107422 190.812622,208.686203 211.041443,216.890900 
z"/>
<path fill="#000000" opacity="1.000000" stroke="none" 
	d="
M182.999908,453.362549 
	C173.690399,453.347656 164.878708,453.442047 156.072372,453.267242 
	C152.084991,453.188141 148.367798,451.879150 147.038757,447.619904 
	C145.866425,443.862915 146.686523,440.497009 150.097565,437.905121 
	C151.912415,436.526093 153.821060,436.675354 155.775330,436.672333 
	C173.560638,436.644806 191.346008,436.633057 209.131302,436.658203 
	C215.910309,436.667816 219.165894,439.357666 219.277496,444.878571 
	C219.369995,449.453644 215.412704,453.065918 209.427719,453.270966 
	C202.288391,453.515564 195.135056,453.350983 187.987778,453.362518 
	C186.491821,453.364929 184.995865,453.362274 182.999908,453.362549 
z"/>
<path fill="#000000" opacity="1.000000" stroke="none" 
	d="
M162.093002,430.386292 
	C158.103806,430.502258 154.609894,430.498688 151.329742,429.003357 
	C147.418243,427.220215 146.085556,423.917511 146.782898,419.986603 
	C147.454834,416.198730 149.899994,413.706726 153.968277,413.693878 
	C173.294312,413.632874 192.620667,413.659027 211.946869,413.679199 
	C216.448776,413.683899 218.591553,416.567810 219.188309,420.498749 
	C219.815964,424.633179 217.590012,427.634094 213.873703,429.124146 
	C211.288071,430.160858 208.445465,430.440002 205.562469,430.421356 
	C191.234970,430.328674 176.906509,430.383209 162.093002,430.386292 
z"/>
</svg>